<svg width="199" height="307" viewBox="0 0 199 307" fill="none" xmlns="http://www.w3.org/2000/svg">
<path d="M2 277.676V208.624C69.9011 247.753 160.244 224.928 196.928 208.624V277.676C110.038 327.163 30.7716 298.295 2 277.676Z" stroke="white" stroke-width="4"/>
<path d="M17.8244 233.759V271.881" stroke="white" stroke-width="4"/>
<path d="M26.4559 238.149V276.271" stroke="white" stroke-width="4"/>
<path d="M2 190.676V121.624C69.9011 160.753 160.244 137.928 196.928 121.624V190.676C110.038 240.163 30.7716 211.296 2 190.676Z" stroke="white" stroke-width="4"/>
<path d="M17.8244 146.759V184.882" stroke="white" stroke-width="4"/>
<path d="M26.4559 154.711V192.834" stroke="white" stroke-width="4"/>
<path d="M26.4559 69.8349V107.957" stroke="white" stroke-width="4"/>
<path d="M2 34.4081V103.46C30.7716 124.08 110.038 152.947 196.928 103.46V34.4081M2 34.4081C69.9011 73.5375 160.244 50.712 196.928 34.4081M2 34.4081C33.4091 9.95218 116.367 -24.2861 196.928 34.4081" stroke="white" stroke-width="4"/>
<path d="M17.8244 59.5433V97.6657" stroke="white" stroke-width="4"/>
</svg>
