<svg width="162" height="240" viewBox="0 0 162 240" fill="none" xmlns="http://www.w3.org/2000/svg">
<path d="M12.632 232C12.8667 231.659 13.2187 231.136 13.688 230.432C14.1787 229.728 14.744 228.896 15.384 227.936C16.024 226.976 16.7067 225.941 17.432 224.832C18.1787 223.723 18.936 222.592 19.704 221.44C20.4933 220.288 21.2507 219.168 21.976 218.08C22.7227 216.971 23.416 215.947 24.056 215.008C24.696 214.048 25.2507 213.227 25.72 212.544C26.2107 211.84 26.5733 211.328 26.808 211.008L27.224 211.84H16.536C16.1307 211.84 15.7253 211.765 15.32 211.616C14.9147 211.467 14.584 211.243 14.328 210.944C14.072 210.645 13.944 210.293 13.944 209.888V207.712H16.824V208.128C16.824 208.512 16.8987 208.736 17.048 208.8C17.1973 208.843 17.4533 208.864 17.816 208.864H31.672L17.688 229.408L17.496 229.024H32.056V232H12.632ZM37.1093 208.864H40.2133V232H37.1093V208.864ZM53.0353 208.864C54.7206 208.864 56.1606 209.152 57.3553 209.728C58.5499 210.283 59.4673 211.093 60.1073 212.16C60.7686 213.227 61.0993 214.517 61.0993 216.032C61.0993 216.949 60.9606 217.856 60.6833 218.752C60.4059 219.627 59.9579 220.427 59.3393 221.152C58.7419 221.856 57.9526 222.421 56.9713 222.848C55.9899 223.275 54.7953 223.488 53.3873 223.488H49.9633V232H46.8593V208.864H53.0353ZM53.3553 220.512C54.2726 220.512 55.0299 220.363 55.6273 220.064C56.2246 219.765 56.6939 219.392 57.0353 218.944C57.3766 218.475 57.6219 217.984 57.7713 217.472C57.9206 216.96 57.9953 216.501 57.9953 216.096C57.9953 215.627 57.9206 215.147 57.7713 214.656C57.6219 214.144 57.3659 213.685 57.0033 213.28C56.6619 212.853 56.2033 212.512 55.6273 212.256C55.0726 211.979 54.3793 211.84 53.5473 211.84H49.9633V220.512H53.3553ZM62.3848 226.912V226.88L75.2168 210.688H75.2488V224.544H77.9688V226.912H75.2488V232H72.1448V226.912H62.3848ZM72.3368 217.696L66.9288 224.704L66.4488 224.544H72.1448V217.12L72.3368 217.696ZM88.5658 224.288L79.9898 208.864H83.7977L90.6778 221.632L89.7178 221.696L96.5338 208.864H100.31L91.6698 224.288V232H88.5658V224.288ZM101.232 220.448C101.232 218.848 101.53 217.344 102.128 215.936C102.746 214.507 103.6 213.248 104.688 212.16C105.776 211.051 107.024 210.187 108.432 209.568C109.861 208.928 111.397 208.608 113.04 208.608C114.661 208.608 116.176 208.928 117.584 209.568C119.013 210.187 120.272 211.051 121.36 212.16C122.469 213.248 123.333 214.507 123.952 215.936C124.57 217.344 124.88 218.848 124.88 220.448C124.88 222.091 124.57 223.627 123.952 225.056C123.333 226.485 122.469 227.744 121.36 228.832C120.272 229.899 119.013 230.741 117.584 231.36C116.176 231.957 114.661 232.256 113.04 232.256C111.397 232.256 109.861 231.957 108.432 231.36C107.024 230.763 105.776 229.931 104.688 228.864C103.6 227.797 102.746 226.549 102.128 225.12C101.53 223.691 101.232 222.133 101.232 220.448ZM104.432 220.48C104.432 221.696 104.656 222.837 105.104 223.904C105.552 224.949 106.17 225.877 106.96 226.688C107.749 227.499 108.666 228.139 109.712 228.608C110.757 229.056 111.888 229.28 113.104 229.28C114.298 229.28 115.418 229.056 116.464 228.608C117.509 228.139 118.416 227.499 119.184 226.688C119.952 225.877 120.56 224.949 121.008 223.904C121.456 222.837 121.68 221.685 121.68 220.448C121.68 219.232 121.456 218.091 121.008 217.024C120.56 215.936 119.941 214.987 119.152 214.176C118.362 213.365 117.445 212.736 116.4 212.288C115.354 211.819 114.234 211.584 113.04 211.584C111.824 211.584 110.693 211.819 109.648 212.288C108.602 212.757 107.685 213.397 106.896 214.208C106.106 215.019 105.498 215.968 105.072 217.056C104.645 218.123 104.432 219.264 104.432 220.48ZM132.893 223.808C132.893 224.853 133.139 225.792 133.629 226.624C134.141 227.435 134.813 228.075 135.645 228.544C136.477 229.013 137.416 229.248 138.461 229.248C139.549 229.248 140.52 229.013 141.373 228.544C142.227 228.075 142.899 227.435 143.389 226.624C143.88 225.792 144.125 224.853 144.125 223.808V208.864H147.165V223.904C147.165 225.589 146.771 227.061 145.981 228.32C145.213 229.579 144.168 230.549 142.845 231.232C141.544 231.915 140.083 232.256 138.461 232.256C136.84 232.256 135.379 231.915 134.077 231.232C132.776 230.549 131.741 229.579 130.973 228.32C130.205 227.061 129.821 225.589 129.821 223.904V208.864H132.893V223.808Z" fill="#0074D9"/>
<path d="M23.2571 35.2914L24.3314 38.7829L16.8114 41.2L10.6343 38.7829L6.87429 35.2914L5.8 28.8457V21.3257L8.48572 14.0743L11.9771 10.0457L16.8114 6.01714L21.1086 3.06285L27.2857 0.645709L33.1943 0.108566H39.9086H46.8914L54.68 1.71999L63.8114 4.13714L77.24 10.0457L91.4743 17.0286L103.023 21.8629L112.96 23.7429L119.406 18.1029L124.509 15.1486L127.463 13.5371L132.566 10.8514L137.669 9.24L143.309 7.89714L146.531 8.43428L147.874 10.8514V13.5371L146.531 17.2971L143.04 21.8629L138.743 25.0857L132.566 28.5771L125.851 31.5314L119.406 33.1429L111.08 43.08L104.097 55.4343L84.4914 92.2286L76.1657 107.806L61.9314 129.291L73.2114 135.737L81.8057 139.766L91.7429 143.794L101.68 147.017L110.543 149.434L118.869 150.24H127.463L134.446 148.897L142.771 144.869L148.68 138.691L151.903 130.366V125.8L150.291 119.891L148.68 114.789L144.92 111.566L141.16 109.686L139.28 107.806V104.314L140.086 101.36L141.966 99.48H146.8L150.291 100.554L155.126 104.314L158.349 109.686L161.034 116.4L161.84 123.92V131.44L160.229 138.691L157.006 145.943L152.44 152.12L143.846 158.297L136.057 162.057L125.851 163.937H115.377L103.56 162.863L91.7429 159.64L79.3886 154.269L65.6914 147.017L53.0686 139.766L50.1143 141.914L42.0571 147.017L35.0743 149.971L23.2571 152.12L13.0514 151.046L5.53143 147.017L1.23429 140.84L0.428574 133.857L2.84572 124.726L10.0971 119.086L20.84 116.669H29.1657L36.6857 118.28L44.2057 120.966L52.5314 124.726L69.9886 96.5257L85.0286 65.9086L93.6228 50.3314L104.097 34.2171L92.5486 30.4571L81.8057 25.8914L69.9886 19.9829L56.0229 15.4171L47.6971 13.2686H39.9086L31.8514 15.4171L26.7486 19.9829L23.2571 25.8914V30.9943V35.2914Z" fill="#0074D9"/>
</svg>
